<svg version="1.1" id="Layer_1" xmlns="http://www.w3.org/2000/svg" xmlns:xlink="http://www.w3.org/1999/xlink" x="0px" y="0px"
	 width="100%" viewBox="0 0 1102 1102" enable-background="new 0 0 1102 1102" xml:space="preserve">
<path fill="#000000" opacity="1.000000" stroke="none" 
	d="
M581.000000,1103.000000 
	C387.355194,1103.000000 194.210373,1103.000000 1.032779,1103.000000 
	C1.032779,735.730103 1.032779,368.460144 1.032779,1.095114 
	C368.228333,1.095114 735.456665,1.095114 1102.842529,1.095114 
	C1102.842529,368.333282 1102.842529,735.666626 1102.842529,1103.000000 
	C929.126404,1103.000000 755.313171,1103.000000 581.000000,1103.000000 
M410.218109,192.759048 
	C366.462494,218.423660 330.931641,252.597595 303.975220,295.603607 
	C283.497101,328.274139 269.982361,363.638611 264.262085,401.770325 
	C259.194153,435.553650 260.599426,469.321930 268.105103,502.588348 
	C289.722412,598.400330 344.535278,667.874329 434.101471,709.077148 
	C442.492554,712.937256 444.701477,720.441345 449.989532,727.009827 
	C447.240356,727.294434 445.591705,727.541077 443.934784,727.625427 
	C404.489044,729.635193 365.191559,733.199768 326.115906,739.008728 
	C289.363312,744.472290 253.095154,751.971252 218.563660,766.171265 
	C199.981613,773.812622 182.521286,783.317749 168.813080,798.548157 
	C148.404938,821.222351 148.517151,853.918213 168.982269,876.600769 
	C178.727570,887.402100 190.424789,895.466248 203.272324,902.020020 
	C233.340591,917.358276 265.677917,925.652161 298.554810,931.850708 
	C353.997253,942.303772 410.111176,946.834412 466.413849,948.754578 
	C499.378632,949.878845 532.387146,950.149170 565.374695,950.090271 
	C639.406006,949.957947 713.253479,946.767883 786.507690,934.993774 
	C819.575073,929.678833 852.150085,922.461426 883.299377,909.874451 
	C902.552429,902.094482 920.740479,892.458679 934.812256,876.609741 
	C949.047119,860.577087 953.813354,842.100342 947.730774,821.434448 
	C942.193054,802.619873 928.645142,790.144775 912.625549,780.170044 
	C887.479187,764.512573 859.555725,755.815125 831.011963,749.110779 
	C781.920349,737.580139 731.933105,732.375183 681.723877,728.964661 
	C672.647827,728.348206 663.569824,727.761475 654.310730,727.148987 
	C661.242126,713.898438 662.208496,712.851135 674.661621,707.002625 
	C719.259033,686.057861 756.290283,655.856018 785.401245,616.111267 
	C814.340271,576.601257 832.063293,532.467346 839.190918,484.014374 
	C846.245667,436.057159 841.647888,389.311737 823.930725,344.184448 
	C799.399902,281.702087 758.058228,232.848328 701.302124,197.318405 
	C646.632446,163.094574 586.949219,148.446167 522.597107,155.169235 
	C482.722504,159.335068 445.551025,172.353455 410.218109,192.759048 
z"/>
<path fill="#FDFDFD" opacity="1.000000" stroke="none" 
	d="
M410.514282,192.543304 
	C445.551025,172.353455 482.722504,159.335068 522.597107,155.169235 
	C586.949219,148.446167 646.632446,163.094574 701.302124,197.318405 
	C758.058228,232.848328 799.399902,281.702087 823.930725,344.184448 
	C841.647888,389.311737 846.245667,436.057159 839.190918,484.014374 
	C832.063293,532.467346 814.340271,576.601257 785.401245,616.111267 
	C756.290283,655.856018 719.259033,686.057861 674.661621,707.002625 
	C662.208496,712.851135 661.242126,713.898438 654.310730,727.148987 
	C663.569824,727.761475 672.647827,728.348206 681.723877,728.964661 
	C731.933105,732.375183 781.920349,737.580139 831.011963,749.110779 
	C859.555725,755.815125 887.479187,764.512573 912.625549,780.170044 
	C928.645142,790.144775 942.193054,802.619873 947.730774,821.434448 
	C953.813354,842.100342 949.047119,860.577087 934.812256,876.609741 
	C920.740479,892.458679 902.552429,902.094482 883.299377,909.874451 
	C852.150085,922.461426 819.575073,929.678833 786.507690,934.993774 
	C713.253479,946.767883 639.406006,949.957947 565.374695,950.090271 
	C532.387146,950.149170 499.378632,949.878845 466.413849,948.754578 
	C410.111176,946.834412 353.997253,942.303772 298.554810,931.850708 
	C265.677917,925.652161 233.340591,917.358276 203.272324,902.020020 
	C190.424789,895.466248 178.727570,887.402100 168.982269,876.600769 
	C148.517151,853.918213 148.404938,821.222351 168.813080,798.548157 
	C182.521286,783.317749 199.981613,773.812622 218.563660,766.171265 
	C253.095154,751.971252 289.363312,744.472290 326.115906,739.008728 
	C365.191559,733.199768 404.489044,729.635193 443.934784,727.625427 
	C445.591705,727.541077 447.240356,727.294434 449.989532,727.009827 
	C444.701477,720.441345 442.492554,712.937256 434.101471,709.077148 
	C344.535278,667.874329 289.722412,598.400330 268.105103,502.588348 
	C260.599426,469.321930 259.194153,435.553650 264.262085,401.770325 
	C269.982361,363.638611 283.497101,328.274139 303.975220,295.603607 
	C330.931641,252.597595 366.462494,218.423660 410.514282,192.543304 
M518.456604,784.013245 
	C523.864075,792.194275 528.851929,800.694214 534.774658,808.483459 
	C544.295959,821.005554 561.980835,819.748352 570.509949,806.583008 
	C593.383362,771.276245 616.521240,736.139709 639.203186,700.710815 
	C643.734924,693.632263 649.356750,689.089600 657.015320,685.754028 
	C692.602844,670.255188 723.532837,648.087219 749.140137,618.844727 
	C784.601257,578.349731 805.783203,531.296021 813.249817,477.965546 
	C818.605896,439.709351 815.569214,402.206970 803.323303,365.622955 
	C784.201416,308.497070 749.418213,262.715942 700.150757,228.448349 
	C640.443909,186.919678 574.543030,171.013382 502.594574,185.423584 
	C455.439209,194.868073 414.136902,216.595764 378.202515,248.487595 
	C343.836395,278.987549 318.400055,315.658112 302.493713,358.840607 
	C286.970062,400.984253 284.479248,444.219360 292.198486,488.167969 
	C299.591827,530.261169 315.695007,568.748047 341.529907,602.925110 
	C370.579681,641.355225 407.363861,669.829529 451.951660,688.277893 
	C455.675018,689.818420 459.362488,692.981812 461.588379,696.364075 
	C480.600800,725.253601 499.271515,754.368103 518.456604,784.013245 
M905.308472,807.158386 
	C900.545898,804.122192 895.966064,800.740479 890.989929,798.107971 
	C865.907104,784.838501 838.821350,777.270874 811.165955,772.214539 
	C782.870728,767.041077 754.375732,762.625793 725.793457,759.451782 
	C697.504578,756.310303 668.998779,755.115967 640.582581,753.147461 
	C639.253418,753.055359 637.198853,753.284180 636.616638,754.137573 
	C631.134277,762.173340 625.898987,770.377686 620.269958,779.028748 
	C630.409851,779.691895 639.694824,780.330688 648.984070,780.901245 
	C689.414062,783.384705 729.611328,787.687561 769.098328,797.062561 
	C785.779480,801.023010 802.146362,806.032166 816.610718,815.748901 
	C835.342346,828.332153 835.751892,846.396484 816.948120,858.719971 
	C809.258057,863.759827 800.647766,867.781860 791.953186,870.834717 
	C757.794067,882.828491 722.093201,887.282288 686.319031,890.858704 
	C643.194031,895.169983 599.909607,897.728760 556.584229,896.965149 
	C515.131836,896.234497 473.676483,894.383423 432.283478,891.975220 
	C397.200226,889.934021 362.389984,885.137695 328.328339,876.044983 
	C313.372009,872.052490 298.609467,867.380188 285.853577,858.183777 
	C269.014771,846.043762 268.794464,829.804871 285.137451,817.055542 
	C286.575195,815.933960 288.059692,814.760681 289.709930,814.041504 
	C299.879364,809.609497 309.796051,804.267883 320.361755,801.132385 
	C363.389771,788.363586 407.818085,784.190857 452.356323,781.015503 
	C462.525146,780.290527 472.705658,779.729004 483.524811,779.051880 
	C478.296173,770.905396 473.437469,763.580811 468.869324,756.079346 
	C467.354065,753.591125 465.638275,752.913757 462.848419,753.059753 
	C413.096985,755.663574 363.461182,759.374390 314.311401,767.966553 
	C285.617523,772.982666 257.234985,779.184875 230.070465,790.029114 
	C216.411209,795.481934 203.256973,801.903931 192.492508,812.172913 
	C175.933838,827.969360 175.896622,846.903320 192.281937,862.804871 
	C205.625488,875.754456 222.336517,882.906250 239.472076,888.909668 
	C283.908264,904.477722 330.166351,911.571106 376.763031,915.664612 
	C419.054657,919.379883 461.516632,921.927124 503.954742,923.045654 
	C598.333984,925.533325 692.548645,922.980530 786.022583,907.957092 
	C816.089966,903.124512 845.828857,896.701721 874.167358,885.156433 
	C888.210693,879.435059 901.844910,872.859070 912.719727,861.808472 
	C923.533081,850.820374 927.101807,837.538696 920.641907,825.492737 
	C917.059387,818.812561 910.872437,813.529053 905.308472,807.158386 
M747.736511,819.786560 
	C738.732300,818.186340 729.763184,816.345398 720.717834,815.027771 
	C682.934143,809.523865 644.901611,806.866028 606.776733,805.259033 
	C603.990845,805.141602 602.603699,806.063538 601.237610,808.268555 
	C597.911743,813.636963 594.461792,818.938477 590.842590,824.113586 
	C575.594666,845.916504 542.602417,851.052490 522.466675,833.663452 
	C514.738953,826.989868 509.374664,817.500977 503.310150,809.025330 
	C501.348938,806.284241 499.664551,805.032532 496.162689,805.329102 
	C460.829468,808.320801 425.416229,810.514465 390.158630,814.204285 
	C364.202454,816.920593 338.525726,821.930847 313.865326,830.972961 
	C309.512024,832.569153 305.405243,834.837708 301.184631,836.795837 
	C301.226044,837.314087 301.267456,837.832336 301.308868,838.350586 
	C305.504608,840.248474 309.536957,842.749878 313.924896,843.937500 
	C330.899353,848.531311 347.817352,853.605164 365.065613,856.863159 
	C410.826111,865.507019 457.206757,868.535645 503.675415,869.929565 
	C565.176697,871.774597 626.608643,870.613037 687.853577,864.087830 
	C719.472595,860.718994 750.939941,856.392883 781.429321,846.939270 
	C788.704041,844.683655 795.668518,841.427307 802.775696,838.631287 
	C802.647400,838.056091 802.519043,837.480957 802.390686,836.905823 
	C785.618469,827.664734 767.132996,823.692200 747.736511,819.786560 
z"/>
<path fill="#010101" opacity="1.000000" stroke="none" 
	d="
M518.250549,783.714233 
	C499.271515,754.368103 480.600800,725.253601 461.588379,696.364075 
	C459.362488,692.981812 455.675018,689.818420 451.951660,688.277893 
	C407.363861,669.829529 370.579681,641.355225 341.529907,602.925110 
	C315.695007,568.748047 299.591827,530.261169 292.198486,488.167969 
	C284.479248,444.219360 286.970062,400.984253 302.493713,358.840607 
	C318.400055,315.658112 343.836395,278.987549 378.202515,248.487595 
	C414.136902,216.595764 455.439209,194.868073 502.594574,185.423584 
	C574.543030,171.013382 640.443909,186.919678 700.150757,228.448349 
	C749.418213,262.715942 784.201416,308.497070 803.323303,365.622955 
	C815.569214,402.206970 818.605896,439.709351 813.249817,477.965546 
	C805.783203,531.296021 784.601257,578.349731 749.140137,618.844727 
	C723.532837,648.087219 692.602844,670.255188 657.015320,685.754028 
	C649.356750,689.089600 643.734924,693.632263 639.203186,700.710815 
	C616.521240,736.139709 593.383362,771.276245 570.509949,806.583008 
	C561.980835,819.748352 544.295959,821.005554 534.774658,808.483459 
	C528.851929,800.694214 523.864075,792.194275 518.250549,783.714233 
M598.091187,238.406540 
	C589.394775,236.985306 580.747925,234.966721 571.993835,234.239960 
	C516.033325,229.594238 465.608521,244.202896 421.213257,278.735657 
	C347.729614,335.894745 320.145203,439.078278 357.249481,524.170776 
	C392.434326,604.861511 455.288727,648.798401 543.040649,654.419556 
	C591.687622,657.535767 636.834045,643.722290 675.851685,614.011353 
	C740.984863,564.414001 769.991882,498.294159 760.587891,416.804871 
	C754.622498,365.112335 731.002136,321.656097 692.238586,286.800446 
	C665.381287,262.650757 634.182434,246.609741 598.091187,238.406540 
z"/>
<path fill="#020202" opacity="1.000000" stroke="none" 
	d="
M905.583923,807.387207 
	C910.872437,813.529053 917.059387,818.812561 920.641907,825.492737 
	C927.101807,837.538696 923.533081,850.820374 912.719727,861.808472 
	C901.844910,872.859070 888.210693,879.435059 874.167358,885.156433 
	C845.828857,896.701721 816.089966,903.124512 786.022583,907.957092 
	C692.548645,922.980530 598.333984,925.533325 503.954742,923.045654 
	C461.516632,921.927124 419.054657,919.379883 376.763031,915.664612 
	C330.166351,911.571106 283.908264,904.477722 239.472076,888.909668 
	C222.336517,882.906250 205.625488,875.754456 192.281937,862.804871 
	C175.896622,846.903320 175.933838,827.969360 192.492508,812.172913 
	C203.256973,801.903931 216.411209,795.481934 230.070465,790.029114 
	C257.234985,779.184875 285.617523,772.982666 314.311401,767.966553 
	C363.461182,759.374390 413.096985,755.663574 462.848419,753.059753 
	C465.638275,752.913757 467.354065,753.591125 468.869324,756.079346 
	C473.437469,763.580811 478.296173,770.905396 483.524811,779.051880 
	C472.705658,779.729004 462.525146,780.290527 452.356323,781.015503 
	C407.818085,784.190857 363.389771,788.363586 320.361755,801.132385 
	C309.796051,804.267883 299.879364,809.609497 289.709930,814.041504 
	C288.059692,814.760681 286.575195,815.933960 285.137451,817.055542 
	C268.794464,829.804871 269.014771,846.043762 285.853577,858.183777 
	C298.609467,867.380188 313.372009,872.052490 328.328339,876.044983 
	C362.389984,885.137695 397.200226,889.934021 432.283478,891.975220 
	C473.676483,894.383423 515.131836,896.234497 556.584229,896.965149 
	C599.909607,897.728760 643.194031,895.169983 686.319031,890.858704 
	C722.093201,887.282288 757.794067,882.828491 791.953186,870.834717 
	C800.647766,867.781860 809.258057,863.759827 816.948120,858.719971 
	C835.751892,846.396484 835.342346,828.332153 816.610718,815.748901 
	C802.146362,806.032166 785.779480,801.023010 769.098328,797.062561 
	C729.611328,787.687561 689.414062,783.384705 648.984070,780.901245 
	C639.694824,780.330688 630.409851,779.691895 620.269958,779.028748 
	C625.898987,770.377686 631.134277,762.173340 636.616638,754.137573 
	C637.198853,753.284180 639.253418,753.055359 640.582581,753.147461 
	C668.998779,755.115967 697.504578,756.310303 725.793457,759.451782 
	C754.375732,762.625793 782.870728,767.041077 811.165955,772.214539 
	C838.821350,777.270874 865.907104,784.838501 890.989929,798.107971 
	C895.966064,800.740479 900.545898,804.122192 905.583923,807.387207 
z"/>
<path fill="#020202" opacity="1.000000" stroke="none" 
	d="
M748.162109,819.844971 
	C767.132996,823.692200 785.618469,827.664734 802.390686,836.905823 
	C802.519043,837.480957 802.647400,838.056091 802.775696,838.631287 
	C795.668518,841.427307 788.704041,844.683655 781.429321,846.939270 
	C750.939941,856.392883 719.472595,860.718994 687.853577,864.087830 
	C626.608643,870.613037 565.176697,871.774597 503.675415,869.929565 
	C457.206757,868.535645 410.826111,865.507019 365.065613,856.863159 
	C347.817352,853.605164 330.899353,848.531311 313.924896,843.937500 
	C309.536957,842.749878 305.504608,840.248474 301.308868,838.350586 
	C301.267456,837.832336 301.226044,837.314087 301.184631,836.795837 
	C305.405243,834.837708 309.512024,832.569153 313.865326,830.972961 
	C338.525726,821.930847 364.202454,816.920593 390.158630,814.204285 
	C425.416229,810.514465 460.829468,808.320801 496.162689,805.329102 
	C499.664551,805.032532 501.348938,806.284241 503.310150,809.025330 
	C509.374664,817.500977 514.738953,826.989868 522.466675,833.663452 
	C542.602417,851.052490 575.594666,845.916504 590.842590,824.113586 
	C594.461792,818.938477 597.911743,813.636963 601.237610,808.268555 
	C602.603699,806.063538 603.990845,805.141602 606.776733,805.259033 
	C644.901611,806.866028 682.934143,809.523865 720.717834,815.027771 
	C729.763184,816.345398 738.732300,818.186340 748.162109,819.844971 
z"/>
<path fill="#FDFDFD" opacity="1.000000" stroke="none" 
	d="
M598.487183,238.543716 
	C634.182434,246.609741 665.381287,262.650757 692.238586,286.800446 
	C731.002136,321.656097 754.622498,365.112335 760.587891,416.804871 
	C769.991882,498.294159 740.984863,564.414001 675.851685,614.011353 
	C636.834045,643.722290 591.687622,657.535767 543.040649,654.419556 
	C455.288727,648.798401 392.434326,604.861511 357.249481,524.170776 
	C320.145203,439.078278 347.729614,335.894745 421.213257,278.735657 
	C465.608521,244.202896 516.033325,229.594238 571.993835,234.239960 
	C580.747925,234.966721 589.394775,236.985306 598.487183,238.543716 
M526.277954,626.251282 
	C541.218628,626.530457 556.260254,628.051208 571.080200,626.845947 
	C609.024902,623.760132 642.784607,609.178772 671.230103,584.128357 
	C723.423157,538.164856 743.950989,480.070557 733.000427,411.465790 
	C720.466187,332.938507 653.091736,269.680664 573.567017,261.054657 
	C525.183899,255.806549 480.917145,267.163727 441.906250,296.402618 
	C397.660980,329.564728 372.302368,374.259369 368.410339,429.265289 
	C364.014404,491.392883 385.867249,543.893982 433.462402,584.768127 
	C459.945496,607.511597 490.680878,621.394409 526.277954,626.251282 
z"/>
<path fill="#010101" opacity="1.000000" stroke="none" 
	d="
M525.837219,626.194458 
	C490.680878,621.394409 459.945496,607.511597 433.462402,584.768127 
	C385.867249,543.893982 364.014404,491.392883 368.410339,429.265289 
	C372.302368,374.259369 397.660980,329.564728 441.906250,296.402618 
	C480.917145,267.163727 525.183899,255.806549 573.567017,261.054657 
	C653.091736,269.680664 720.466187,332.938507 733.000427,411.465790 
	C743.950989,480.070557 723.423157,538.164856 671.230103,584.128357 
	C642.784607,609.178772 609.024902,623.760132 571.080200,626.845947 
	C556.260254,628.051208 541.218628,626.530457 525.837219,626.194458 
M648.134766,438.721375 
	C650.526855,436.924377 653.078918,435.303925 655.286743,433.303589 
	C683.635986,407.619415 685.922668,358.323486 660.141907,329.777069 
	C640.045959,307.525238 610.249390,307.162476 590.239502,329.447693 
	C573.185303,348.441284 568.780090,371.133453 573.723572,395.626923 
	C577.991882,416.775208 588.838684,433.382996 609.240662,442.686584 
	C610.642273,443.325806 611.721741,446.257812 611.730469,448.129303 
	C611.880432,480.126465 611.835388,512.124573 611.840942,544.122498 
	C611.841492,547.121704 611.752258,550.130249 611.950867,553.118164 
	C612.401978,559.905823 617.589539,564.862732 624.311218,565.112000 
	C632.741516,565.424744 638.188416,559.846436 638.206177,550.518005 
	C638.266663,518.686890 638.537720,486.850494 638.015625,455.027832 
	C637.883667,446.985474 639.023621,441.263672 648.134766,438.721375 
M439.064911,366.500000 
	C439.077240,375.662109 438.732452,384.841553 439.176117,393.982727 
	C440.102631,413.073730 448.444641,428.093414 465.036957,438.014130 
	C469.388153,440.615784 474.199127,442.448456 478.977081,444.718933 
	C478.977081,479.040070 478.975830,513.518677 478.980591,547.997253 
	C478.980835,549.829102 478.890961,551.675903 479.084045,553.490112 
	C479.797058,560.188477 485.125366,564.995667 491.848511,565.124329 
	C498.726837,565.255981 504.168976,560.853027 505.173584,554.180054 
	C505.493958,552.052124 505.529510,549.866699 505.530914,547.707520 
	C505.552338,514.889954 505.596741,482.072205 505.474823,449.255096 
	C505.461517,445.674866 506.099701,443.885742 509.959839,442.500275 
	C531.256226,434.856659 544.569092,416.099121 545.218384,393.470154 
	C545.414246,386.645569 545.283447,379.811310 545.285828,372.981476 
	C545.291016,357.822083 545.354370,342.662262 545.256531,327.503510 
	C545.206177,319.703644 540.788086,314.187164 534.123047,313.131165 
	C525.958374,311.837585 518.936584,318.021576 518.903076,326.822021 
	C518.820679,348.477966 518.960266,370.134918 518.843506,391.790558 
	C518.761536,406.994751 507.669250,418.798431 493.441101,419.157959 
	C477.757263,419.554260 465.983063,408.508545 465.836182,392.757202 
	C465.634277,371.102844 465.849365,349.444855 465.733276,327.789246 
	C465.685944,318.960022 459.984009,312.925262 452.253662,313.010986 
	C444.495392,313.096985 439.106567,319.177826 439.076294,328.018036 
	C439.033539,340.511871 439.065125,353.006012 439.064911,366.500000 
M503.486572,319.270050 
	C499.646515,314.094788 494.738495,311.707733 488.308960,313.681213 
	C482.914185,315.337067 479.090424,319.865448 479.061005,325.376556 
	C478.939301,348.168945 478.798584,370.965546 479.127991,393.753937 
	C479.261414,402.982483 489.247742,408.646454 497.628326,404.827515 
	C503.725525,402.049103 505.586823,396.852905 505.570129,390.543793 
	C505.515533,369.913391 505.614258,349.282349 505.475159,328.652710 
	C505.455536,325.739899 504.441284,322.833832 503.486572,319.270050 
z"/>
<path fill="#FDFDFD" opacity="1.000000" stroke="none" 
	d="
M647.813232,438.894745 
	C639.023621,441.263672 637.883667,446.985474 638.015625,455.027832 
	C638.537720,486.850494 638.266663,518.686890 638.206177,550.518005 
	C638.188416,559.846436 632.741516,565.424744 624.311218,565.112000 
	C617.589539,564.862732 612.401978,559.905823 611.950867,553.118164 
	C611.752258,550.130249 611.841492,547.121704 611.840942,544.122498 
	C611.835388,512.124573 611.880432,480.126465 611.730469,448.129303 
	C611.721741,446.257812 610.642273,443.325806 609.240662,442.686584 
	C588.838684,433.382996 577.991882,416.775208 573.723572,395.626923 
	C568.780090,371.133453 573.185303,348.441284 590.239502,329.447693 
	C610.249390,307.162476 640.045959,307.525238 660.141907,329.777069 
	C685.922668,358.323486 683.635986,407.619415 655.286743,433.303589 
	C653.078918,435.303925 650.526855,436.924377 647.813232,438.894745 
M602.932312,357.524872 
	C595.644470,376.191833 596.418945,394.136383 608.872009,410.394836 
	C617.863525,422.134003 631.347656,422.132019 640.779907,410.824341 
	C650.994080,398.579193 653.169617,384.245972 650.460754,368.988525 
	C648.672424,358.915344 644.687805,349.886108 636.189880,343.498596 
	C629.319763,338.334595 620.573242,337.879211 614.129333,343.474823 
	C609.848877,347.191833 606.791321,352.317047 602.932312,357.524872 
z"/>
<path fill="#FCFCFC" opacity="1.000000" stroke="none" 
	d="
M439.064911,366.000000 
	C439.065125,353.006012 439.033539,340.511871 439.076294,328.018036 
	C439.106567,319.177826 444.495392,313.096985 452.253662,313.010986 
	C459.984009,312.925262 465.685944,318.960022 465.733276,327.789246 
	C465.849365,349.444855 465.634277,371.102844 465.836182,392.757202 
	C465.983063,408.508545 477.757263,419.554260 493.441101,419.157959 
	C507.669250,418.798431 518.761536,406.994751 518.843506,391.790558 
	C518.960266,370.134918 518.820679,348.477966 518.903076,326.822021 
	C518.936584,318.021576 525.958374,311.837585 534.123047,313.131165 
	C540.788086,314.187164 545.206177,319.703644 545.256531,327.503510 
	C545.354370,342.662262 545.291016,357.822083 545.285828,372.981476 
	C545.283447,379.811310 545.414246,386.645569 545.218384,393.470154 
	C544.569092,416.099121 531.256226,434.856659 509.959839,442.500275 
	C506.099701,443.885742 505.461517,445.674866 505.474823,449.255096 
	C505.596741,482.072205 505.552338,514.889954 505.530914,547.707520 
	C505.529510,549.866699 505.493958,552.052124 505.173584,554.180054 
	C504.168976,560.853027 498.726837,565.255981 491.848511,565.124329 
	C485.125366,564.995667 479.797058,560.188477 479.084045,553.490112 
	C478.890961,551.675903 478.980835,549.829102 478.980591,547.997253 
	C478.975830,513.518677 478.977081,479.040070 478.977081,444.718933 
	C474.199127,442.448456 469.388153,440.615784 465.036957,438.014130 
	C448.444641,428.093414 440.102631,413.073730 439.176117,393.982727 
	C438.732452,384.841553 439.077240,375.662109 439.064911,366.000000 
z"/>
<path fill="#FAFAFA" opacity="1.000000" stroke="none" 
	d="
M503.687012,319.597351 
	C504.441284,322.833832 505.455536,325.739899 505.475159,328.652710 
	C505.614258,349.282349 505.515533,369.913391 505.570129,390.543793 
	C505.586823,396.852905 503.725525,402.049103 497.628326,404.827515 
	C489.247742,408.646454 479.261414,402.982483 479.127991,393.753937 
	C478.798584,370.965546 478.939301,348.168945 479.061005,325.376556 
	C479.090424,319.865448 482.914185,315.337067 488.308960,313.681213 
	C494.738495,311.707733 499.646515,314.094788 503.687012,319.597351 
z"/>
<path fill="#020202" opacity="1.000000" stroke="none" 
	d="
M603.059326,357.168396 
	C606.791321,352.317047 609.848877,347.191833 614.129333,343.474823 
	C620.573242,337.879211 629.319763,338.334595 636.189880,343.498596 
	C644.687805,349.886108 648.672424,358.915344 650.460754,368.988525 
	C653.169617,384.245972 650.994080,398.579193 640.779907,410.824341 
	C631.347656,422.132019 617.863525,422.134003 608.872009,410.394836 
	C596.418945,394.136383 595.644470,376.191833 603.059326,357.168396 
z"/>
</svg>